solid stairs
 facet normal 0 0 1
  outer loop
   vertex 0 0 12
   vertex 40 0 12
   vertex 40 13.333333333333334 12
  endloop
 endfacet
 facet normal 0 0 1
  outer loop
   vertex 0 0 12
   vertex 40 13.333333333333334 12
   vertex 0 13.333333333333334 12
  endloop
 endfacet
 facet normal 0 0 1
  outer loop
   vertex 0 13.333333333333334 8
   vertex 40 13.333333333333334 8
   vertex 40 26.666666666666668 8
  endloop
 endfacet
 facet normal 0 0 1
  outer loop
   vertex 0 13.333333333333334 8
   vertex 40 26.666666666666668 8
   vertex 0 26.666666666666668 8
  endloop
 endfacet
 facet normal 0 0 1
  outer loop
   vertex 0 26.666666666666668 4
   vertex 40 26.666666666666668 4
   vertex 40 40 4
  endloop
 endfacet
 facet normal 0 0 1
  outer loop
   vertex 0 26.666666666666668 4
   vertex 40 40 4
   vertex 0 40 4
  endloop
 endfacet
 facet normal 0 0 -1
  outer loop
   vertex 0 0 0
   vertex 40 40 0
   vertex 40 0 0
  endloop
 endfacet
 facet normal 0 0 -1
  outer loop
   vertex 0 0 0
   vertex 0 40 0
   vertex 40 40 0
  endloop
 endfacet
endsolid stairs
